<?xml version="1.0" standalone="no"?>
<!DOCTYPE svg PUBLIC "-//W3C//DTD SVG 20010904//EN"
 "http://www.w3.org/TR/2001/REC-SVG-20010904/DTD/svg10.dtd">
<svg version="1.0" xmlns="http://www.w3.org/2000/svg"
 width="512.000000pt" height="512.000000pt" viewBox="0 0 512.000000 512.000000"
 preserveAspectRatio="xMidYMid meet">
<metadata>
Created by potrace 1.16, written by Peter Selinger 2001-2019
</metadata>
<g transform="translate(0.000000,512.000000) scale(0.100000,-0.100000)"
fill="#000000" stroke="none">
<path d="M2487 5106 c-121 -44 -197 -144 -197 -261 0 -49 4 -60 29 -86 23 -22
39 -29 69 -29 55 0 87 28 107 95 18 64 48 85 117 85 75 0 139 -57 154 -139 10
-53 -19 -132 -67 -180 -50 -49 -101 -65 -256 -80 -414 -41 -780 -309 -941
-691 -73 -172 -97 -310 -89 -503 11 -254 93 -476 247 -668 l51 -63 -37 -21
c-233 -128 -444 -351 -549 -578 -44 -95 -91 -253 -105 -350 -22 -148 25 -305
122 -411 l45 -50 -49 -39 c-146 -115 -217 -319 -174 -500 22 -95 44 -133 170
-296 162 -211 205 -254 294 -298 75 -38 77 -38 196 -38 115 0 124 2 186 31
165 79 260 230 260 413 0 99 -6 117 -177 529 -4 9 73 12 366 12 396 0 415 2
441 49 13 25 13 87 0 112 -26 48 -37 49 -540 49 l-470 0 0 109 c0 86 3 113 16
125 24 24 1684 24 1708 0 13 -12 16 -39 16 -132 l0 -117 -50 -32 c-51 -34
-119 -111 -150 -172 -26 -52 -129 -305 -156 -385 -76 -222 24 -458 236 -560
62 -29 71 -31 186 -31 119 0 121 0 196 38 89 44 132 87 294 298 126 163 148
201 170 296 43 181 -28 385 -174 500 l-49 39 45 50 c97 106 144 263 122 411
-14 97 -61 255 -105 350 -105 227 -316 450 -549 578 l-37 21 51 63 c104 130
178 282 223 459 32 127 31 398 -1 525 -67 266 -222 499 -437 660 -88 65 -219
135 -307 162 l-56 18 24 37 c144 217 61 502 -171 589 -66 25 -188 28 -248 7z
m234 -812 c208 -39 376 -130 516 -278 114 -120 188 -250 235 -412 19 -67 23
-103 23 -234 0 -169 -14 -238 -75 -381 -95 -223 -298 -415 -533 -503 -202 -76
-452 -76 -654 0 -235 88 -438 280 -533 503 -61 143 -75 212 -75 381 0 131 4
167 23 234 87 302 303 541 587 647 149 56 334 72 486 43z m-785 -1895 c74 -50
227 -118 331 -147 90 -24 113 -26 293 -26 180 0 203 2 293 26 105 29 257 97
332 148 l46 32 64 -31 c307 -143 532 -436 590 -766 19 -113 3 -183 -59 -260
-34 -41 -108 -87 -157 -99 l-27 -6 -4 103 c-5 122 -22 163 -97 228 l-49 44 -4
77 c-3 69 -7 81 -31 105 -39 39 -105 40 -144 1 -23 -24 -28 -38 -31 -98 l-4
-70 -719 0 -719 0 0 65 c0 57 -3 68 -29 97 -25 28 -36 33 -75 33 -36 0 -51 -6
-73 -28 -25 -24 -28 -36 -32 -107 l-3 -81 -42 -28 c-25 -18 -53 -50 -71 -83
-26 -47 -30 -65 -33 -155 l-4 -103 -27 6 c-49 12 -123 58 -157 99 -62 77 -78
147 -59 260 58 329 281 620 587 765 35 17 64 30 66 30 2 0 24 -14 48 -31z
m-415 -1375 c69 -20 123 -57 159 -108 40 -60 172 -391 178 -448 10 -100 -43
-195 -133 -238 -68 -33 -168 -26 -227 16 -54 38 -271 310 -306 384 -81 168 21
361 213 403 38 9 62 7 116 -9z m2247 -6 c18 -5 54 -27 81 -48 103 -81 136
-222 79 -340 -35 -74 -252 -346 -306 -384 -59 -42 -159 -49 -227 -16 -90 43
-143 138 -133 238 5 54 135 383 175 443 39 59 121 111 193 122 32 5 95 -2 138
-15z"/>
<path d="M2057 3495 c-22 -7 -50 -24 -64 -37 -110 -101 -1 -251 124 -170 20
12 27 12 66 -7 31 -15 53 -19 76 -15 43 9 81 56 81 101 0 102 -158 173 -283
128z"/>
<path d="M2872 3484 c-91 -45 -119 -121 -67 -182 34 -41 77 -48 132 -21 39 19
46 19 66 7 94 -61 204 18 163 117 -40 95 -183 134 -294 79z"/>
<path d="M2278 3021 c-27 -24 -33 -36 -33 -70 0 -48 23 -82 91 -133 65 -50
132 -71 224 -71 92 0 159 21 224 71 68 51 91 85 91 133 0 34 -6 46 -33 70 -49
44 -98 40 -157 -11 -59 -51 -111 -67 -165 -51 -22 6 -60 30 -85 51 -59 51
-108 55 -157 11z"/>
<path d="M2960 1187 c-14 -7 -33 -29 -43 -50 -20 -41 -14 -82 19 -119 40 -43
132 -30 159 23 49 94 -42 193 -135 146z"/>
<path d="M2140 333 c-119 -47 -67 -220 93 -305 41 -22 50 -23 327 -23 277 0
286 1 327 23 99 52 172 156 159 225 -10 51 -48 82 -103 82 -46 0 -70 -18 -113
-83 -27 -41 -80 -51 -270 -51 -190 0 -243 10 -270 51 -35 53 -66 79 -100 83
-19 2 -42 2 -50 -2z"/>
</g>
</svg>
