<?xml version="1.0" standalone="no"?>
<!DOCTYPE svg PUBLIC "-//W3C//DTD SVG 20010904//EN"
 "http://www.w3.org/TR/2001/REC-SVG-20010904/DTD/svg10.dtd">
<svg version="1.0" xmlns="http://www.w3.org/2000/svg"
 width="512.000000pt" height="512.000000pt" viewBox="0 0 512.000000 512.000000"
 preserveAspectRatio="xMidYMid meet">
<metadata>
Created by potrace 1.16, written by Peter Selinger 2001-2019
</metadata>
<g transform="translate(0.000000,512.000000) scale(0.100000,-0.100000)"
fill="#000000" stroke="none">
<path d="M840 4895 c-241 -52 -446 -214 -550 -436 -99 -213 -97 -472 5 -685
41 -84 133 -205 191 -249 l39 -30 -61 -7 c-77 -8 -129 -34 -178 -88 -51 -57
-68 -101 -68 -181 0 -113 54 -197 157 -245 41 -20 67 -24 143 -24 l93 0 15
-35 c67 -160 69 -382 6 -553 l-18 -47 -104 -5 c-118 -6 -161 -22 -218 -78 -73
-74 -99 -208 -55 -298 l19 -40 -49 -30 c-69 -41 -133 -113 -170 -192 l-32 -67
-3 -519 c-3 -564 -3 -562 55 -662 36 -63 125 -141 200 -177 l68 -32 2294 -3
2294 -2 51 23 c100 47 156 131 156 236 0 86 -16 134 -63 187 -62 71 -104 87
-228 92 l-106 4 -29 92 c-26 83 -29 104 -29 231 1 129 3 147 30 225 l30 85
105 5 c120 7 160 21 215 75 54 55 75 107 75 190 0 88 -30 156 -91 208 -71 61
-106 67 -416 67 l-273 0 29 47 c66 109 65 103 69 606 2 302 0 483 -8 530 -15
97 -60 184 -129 250 -104 100 -186 127 -379 127 -124 0 -134 1 -127 18 4 9 9
45 12 78 10 110 -39 205 -135 261 -37 22 -64 29 -127 33 l-80 5 -19 55 c-28
78 -29 270 -2 358 l19 62 56 0 c121 0 207 50 258 148 58 112 40 236 -47 322
-85 86 31 80 -1484 79 -1103 0 -1353 -3 -1406 -14z m2750 -160 c56 -29 75
-101 43 -156 -36 -61 -12 -59 -796 -59 -686 0 -716 -1 -738 -19 -33 -27 -33
-95 0 -122 22 -18 49 -19 607 -19 321 0 584 -3 584 -7 -1 -5 -7 -35 -15 -68
-19 -77 -19 -241 0 -330 8 -38 15 -71 15 -72 0 -2 -517 -3 -1148 -3 -1276 0
-1215 -3 -1292 66 -105 95 -107 247 -5 347 67 66 79 67 545 67 407 0 418 1
444 21 37 29 37 89 0 118 -26 21 -37 21 -453 21 -449 0 -479 -3 -567 -48 -65
-33 -132 -105 -167 -180 -30 -62 -32 -75 -32 -172 0 -93 3 -112 27 -162 55
-119 173 -207 303 -228 37 -6 552 -10 1345 -10 1414 0 1312 5 1345 -60 25 -48
19 -86 -19 -128 l-34 -37 -1309 -3 c-1163 -2 -1317 -1 -1388 13 -295 59 -506
315 -508 615 -1 244 134 457 361 570 123 61 56 58 1500 59 1164 1 1327 -1
1352 -14z m504 -1425 c66 -25 135 -95 162 -165 18 -47 19 -81 19 -520 l0 -470
-24 -53 c-14 -31 -43 -70 -72 -96 -90 -81 -21 -76 -1121 -76 l-978 0 0 110 0
110 909 0 c651 0 918 3 942 11 40 14 85 53 105 91 21 40 21 716 0 756 -21 41
-68 81 -107 92 -21 6 -661 10 -1757 10 l-1724 0 -34 34 c-28 28 -34 42 -34 76
0 34 6 48 34 76 l34 34 1796 0 c1780 0 1796 0 1850 -20z m-209 -680 l0 -315
-902 -3 -903 -2 0 120 0 120 275 0 276 0 24 25 c35 34 34 86 -1 114 -27 21
-31 21 -920 21 l-894 0 -4 23 c-11 59 -36 174 -42 195 l-6 22 1548 -2 1549 -3
0 -315z m-2595 -200 l0 -120 -251 0 -251 0 6 23 c6 20 31 135 42 195 l4 22
225 0 225 0 0 -120z m630 -526 l0 -646 -91 87 c-135 127 -146 129 -249 31 -36
-34 -80 -75 -97 -91 l-33 -29 0 647 0 647 235 0 235 0 0 -646z m-630 136 l0
-111 -426 3 -426 3 -29 33 c-43 47 -41 102 5 148 l34 34 421 0 421 0 0 -110z
m0 -380 l0 -110 -372 0 c-226 0 -388 -4 -410 -10 -48 -14 -97 -55 -114 -97
-18 -41 -20 -695 -3 -740 11 -31 53 -78 84 -96 15 -9 574 -13 2223 -17 l2204
-5 29 -33 c43 -48 41 -102 -5 -148 l-34 -34 -2269 2 -2268 3 -40 22 c-56 30
-118 100 -141 159 -18 46 -19 81 -19 519 0 457 1 471 21 516 39 83 107 143
194 170 14 4 226 8 473 8 l447 1 0 -110z m3610 95 c76 -40 82 -146 10 -188
-25 -15 -92 -17 -718 -17 -477 0 -699 -3 -721 -11 -54 -19 -68 -75 -30 -123
l20 -26 546 0 545 0 -6 -22 c-4 -13 -16 -66 -28 -118 -26 -121 -21 -305 11
-417 12 -40 21 -75 21 -78 0 -3 -901 -4 -2002 -3 l-2003 3 0 315 0 315 373 3
372 2 0 -140 c0 -150 11 -199 48 -219 46 -25 115 -7 157 39 11 12 60 59 108
103 l88 80 97 -95 c127 -125 146 -138 194 -138 30 0 46 7 69 29 l29 29 0 156
0 156 542 0 542 0 23 22 c24 23 30 66 13 98 -20 38 -57 40 -596 40 l-524 0 0
110 0 110 1395 0 c1219 0 1400 -2 1425 -15z"/>
</g>
</svg>
