<?xml version="1.0" standalone="no"?>
<!DOCTYPE svg PUBLIC "-//W3C//DTD SVG 20010904//EN"
 "http://www.w3.org/TR/2001/REC-SVG-20010904/DTD/svg10.dtd">
<svg version="1.0" xmlns="http://www.w3.org/2000/svg"
 width="512.000000pt" height="512.000000pt" viewBox="0 0 512.000000 512.000000"
 preserveAspectRatio="xMidYMid meet">
<metadata>
Created by potrace 1.16, written by Peter Selinger 2001-2019
</metadata>
<g transform="translate(0.000000,512.000000) scale(0.100000,-0.100000)"
fill="#000000" stroke="none">
<path d="M2246 5104 c-477 -63 -851 -236 -1032 -477 -137 -183 -181 -375 -171
-750 4 -175 10 -233 31 -334 26 -121 62 -236 97 -304 l18 -37 -36 -38 c-77
-82 -110 -211 -79 -316 21 -74 71 -145 129 -185 61 -41 114 -56 198 -55 l66 0
16 -58 c23 -83 96 -251 120 -277 30 -34 89 -32 116 3 29 36 27 59 -13 145 -19
41 -48 118 -65 172 -57 180 -63 231 -68 607 -5 334 -4 348 17 409 54 162 184
269 351 291 96 12 1142 12 1237 0 149 -19 269 -108 335 -247 l32 -68 0 -365
c-1 -339 -2 -372 -23 -466 -62 -284 -170 -498 -342 -677 -180 -188 -390 -286
-613 -287 -224 0 -420 84 -597 256 -86 83 -119 100 -158 82 -35 -17 -57 -58
-48 -91 8 -33 136 -161 213 -214 l56 -38 -93 -7 c-50 -3 -106 -9 -124 -12 -28
-5 -33 -3 -43 24 -22 59 -48 58 -240 -5 -187 -61 -213 -78 -213 -140 0 -29 -7
-37 -67 -76 -116 -76 -228 -201 -291 -326 -24 -46 -72 -204 -72 -235 0 -11
-23 -45 -50 -76 -59 -66 -66 -107 -25 -147 43 -44 75 -35 154 44 38 38 95 87
128 109 60 41 195 112 212 112 7 0 11 -178 13 -506 l3 -506 24 -19 c31 -25 85
-25 111 1 20 20 20 33 20 799 l0 779 62 21 c34 12 65 21 70 21 4 0 9 -360 10
-801 l3 -801 24 -19 c31 -25 85 -25 111 1 20 20 20 34 20 613 l1 592 66 30
c37 16 94 47 126 68 l58 37 52 -45 c65 -58 209 -128 304 -149 92 -20 254 -20
346 0 95 21 239 91 304 148 l51 46 51 -33 c28 -19 84 -49 125 -68 l75 -34 1
-592 c0 -579 0 -593 20 -613 26 -26 80 -26 111 -1 l24 19 3 801 c1 441 6 801
10 801 5 0 36 -9 70 -21 l62 -21 0 -779 c0 -766 0 -779 20 -799 26 -26 80 -26
111 -1 l24 19 3 506 c2 360 6 506 14 506 25 0 194 -98 266 -155 192 -152 290
-370 314 -700 10 -126 14 -154 31 -173 30 -33 89 -31 117 5 21 26 22 35 16
143 -13 222 -53 393 -128 545 -44 88 -66 120 -145 212 -29 33 -53 70 -53 81 0
31 -48 189 -72 235 -63 125 -175 250 -291 326 -60 39 -67 47 -67 76 0 62 -26
79 -213 140 -192 63 -218 64 -240 5 -10 -27 -15 -29 -43 -24 -18 3 -74 9 -125
12 l-93 7 40 27 c207 136 409 421 497 700 l32 100 39 -6 c48 -6 139 10 181 31
65 33 114 84 147 151 29 59 33 76 33 147 -1 91 -22 150 -80 221 l-35 43 24 83
c42 144 68 328 69 490 2 140 1 148 -20 170 -28 28 -84 30 -113 3 -17 -15 -20
-30 -20 -100 0 -163 -29 -372 -71 -517 l-20 -68 -38 0 -39 0 -4 178 c-4 158
-7 184 -30 244 -68 180 -220 318 -401 363 l-67 17 0 62 c1 169 72 308 181 356
180 77 326 -2 414 -223 28 -70 46 -87 90 -87 39 0 62 16 74 50 8 26 6 42 -13
95 -67 183 -200 317 -346 346 -54 10 -57 13 -85 66 -88 168 -305 304 -582 364
-130 28 -530 36 -697 13z m552 -155 c242 -27 460 -127 552 -252 l31 -42 -58
-26 c-32 -14 -82 -47 -110 -73 -96 -87 -163 -264 -163 -432 l0 -64 -576 0
c-636 0 -640 0 -759 -63 -72 -39 -172 -130 -216 -198 -68 -106 -82 -165 -87
-361 l-4 -178 -34 0 c-29 0 -36 5 -53 38 -30 59 -69 187 -94 307 -19 95 -22
141 -22 345 0 210 3 244 23 323 12 48 33 112 48 142 121 257 436 437 901 515
209 36 419 42 621 19z m-1387 -1960 c3 -63 9 -137 13 -166 7 -45 5 -52 -11
-57 -26 -8 -87 8 -121 33 -35 25 -72 95 -72 136 0 40 36 111 69 134 28 20 88
41 106 37 6 -2 13 -54 16 -117z m2397 93 c51 -23 87 -84 87 -147 0 -87 -56
-150 -150 -169 -52 -10 -58 1 -46 88 6 43 11 115 11 160 0 45 3 86 6 89 9 8
49 -1 92 -21z m-1427 -1437 c145 -27 353 -15 477 29 l39 14 13 -52 c7 -28 25
-75 40 -103 l28 -53 -46 -40 c-54 -48 -145 -94 -227 -115 -69 -18 -202 -20
-277 -4 -74 15 -185 70 -239 118 l-46 40 27 55 c15 30 33 77 40 104 l13 50 39
-14 c21 -7 75 -20 119 -29z m-351 -33 c0 -36 -126 -149 -217 -196 l-33 -17 0
100 0 99 63 10 c79 12 187 14 187 4z m1235 -3 l75 -11 0 -99 0 -99 -42 21
c-69 34 -145 96 -177 143 -17 25 -31 47 -31 50 0 10 94 7 175 -5z m-1945 -286
l0 -88 -107 -50 c-58 -27 -110 -52 -115 -53 -14 -6 10 47 48 103 35 53 151
175 166 175 4 0 8 -39 8 -87z m2558 26 c60 -59 116 -136 140 -192 7 -16 9 -27
4 -25 -5 1 -57 26 -115 53 l-107 50 0 88 c0 48 4 87 8 87 4 0 36 -27 70 -61z"/>
<path d="M2480 2734 c-56 -24 -80 -52 -80 -95 0 -29 6 -42 26 -58 32 -25 52
-26 99 -4 35 17 38 17 67 0 63 -36 128 -5 128 62 0 85 -138 139 -240 95z"/>
<path d="M2300 2340 c-13 -13 -20 -33 -20 -58 0 -48 31 -80 115 -119 54 -25
71 -28 165 -28 94 0 111 3 165 28 84 39 115 71 115 119 0 71 -75 104 -133 58
-85 -67 -209 -67 -294 0 -33 26 -87 26 -113 0z"/>
<path d="M658 585 c-20 -11 -32 -30 -43 -68 -24 -85 -43 -214 -50 -342 -7
-114 -6 -121 15 -147 16 -22 30 -28 59 -28 55 0 81 31 81 99 0 82 19 238 41
329 24 104 24 106 -3 136 -29 32 -66 40 -100 21z"/>
<path d="M2505 315 c-24 -23 -25 -30 -25 -148 0 -116 1 -125 23 -145 34 -32
89 -30 116 4 19 24 21 40 21 146 0 113 -1 120 -25 143 -15 16 -36 25 -55 25
-19 0 -40 -9 -55 -25z"/>
</g>
</svg>
