<?xml version="1.0" standalone="no"?>
<!DOCTYPE svg PUBLIC "-//W3C//DTD SVG 20010904//EN"
 "http://www.w3.org/TR/2001/REC-SVG-20010904/DTD/svg10.dtd">
<svg version="1.0" xmlns="http://www.w3.org/2000/svg"
 width="179.000000pt" height="88.000000pt" viewBox="0 0 179.000000 88.000000"
 preserveAspectRatio="xMidYMid meet">
<metadata>
Created by potrace 1.10, written by Peter Selinger 2001-2011
</metadata>
<g transform="translate(0.000000,88.000000) scale(0.100000,-0.100000)"
fill="#000000" stroke="none">
<path d="M1338 603 c-37 -68 -88 -218 -88 -258 0 -18 6 -37 13 -43 10 -9 16 1
26 50 16 81 56 178 92 228 33 46 35 55 13 64 -26 10 -30 8 -56 -41z"/>
<path d="M1105 622 c-37 -4 -77 -41 -100 -92 -11 -24 -28 -43 -44 -49 -24 -9
-25 -9 -3 -10 12 -1 22 -2 22 -3 0 -2 -13 -54 -29 -117 -22 -88 -26 -119 -18
-132 13 -21 27 -15 27 10 0 10 16 68 35 129 33 102 37 111 63 115 26 4 26 4 5
12 -28 9 -28 15 -3 65 26 50 36 56 44 23 8 -28 16 -23 34 19 13 31 9 35 -33
30z"/>
<path d="M268 605 c-48 -16 -58 -31 -37 -52 9 -9 18 -8 36 4 13 9 26 13 29 10
6 -5 -72 -204 -89 -225 -7 -9 -4 -18 8 -32 25 -27 31 -25 39 13 3 17 14 51 22
74 14 37 20 42 40 37 32 -8 87 12 118 43 33 33 36 91 6 118 -27 24 -111 29
-172 10z m165 -36 c22 -31 9 -59 -37 -80 -39 -18 -86 -25 -86 -14 0 3 12 30
28 60 22 45 31 55 54 55 16 0 33 -8 41 -21z"/>
<path d="M1414 554 c-9 -50 7 -61 36 -23 22 31 22 33 5 46 -28 20 -33 16 -41
-23z"/>
<path d="M867 539 c-12 -22 -30 -39 -39 -39 -10 0 -18 -4 -18 -10 0 -5 6 -10
14 -10 11 0 10 -9 -5 -50 -24 -64 -24 -82 1 -105 16 -15 26 -17 47 -9 14 5 28
16 31 24 4 12 2 13 -9 3 -7 -7 -22 -13 -32 -13 -17 0 -18 5 -12 37 12 64 36
113 55 113 11 0 22 5 25 10 3 6 -1 10 -9 10 -20 0 -20 9 -1 34 20 26 19 33 -5
39 -16 4 -25 -4 -43 -34z"/>
<path d="M513 495 c-59 -42 -85 -149 -42 -179 43 -30 108 18 129 94 11 41 5
70 -15 70 -7 0 -15 7 -19 15 -7 19 -26 19 -53 0z m67 -45 c0 -39 -32 -101 -60
-115 -25 -13 -29 -13 -34 1 -3 8 1 32 10 52 27 67 84 108 84 62z"/>
<path d="M665 478 c-24 -58 -47 -147 -40 -158 11 -18 35 -11 35 10 0 27 23 70
50 95 21 19 23 19 35 2 22 -30 35 -20 35 28 0 25 -3 45 -7 45 -4 0 -25 -17
-46 -37 l-39 -38 16 33 c9 18 14 37 11 42 -12 20 -36 9 -50 -22z"/>
<path d="M1133 495 c-59 -42 -85 -149 -42 -179 43 -30 108 18 129 94 11 41 5
70 -15 70 -7 0 -15 7 -19 15 -7 19 -26 19 -53 0z m67 -45 c0 -39 -32 -101 -60
-115 -25 -13 -29 -13 -34 1 -3 8 1 32 10 52 27 67 84 108 84 62z"/>
<path d="M1474 475 c-50 -53 -59 -134 -19 -161 33 -22 84 10 114 69 24 49 23
97 -3 97 -8 0 -16 7 -20 15 -9 25 -37 17 -72 -20z m86 -25 c0 -39 -32 -101
-60 -115 -25 -13 -29 -13 -34 1 -3 8 1 32 10 52 27 67 84 108 84 62z"/>
<path d="M1365 450 c-19 -36 -25 -131 -9 -137 6 -2 16 16 23 39 7 24 21 57 31
74 13 23 15 35 7 43 -19 19 -36 12 -52 -19z"/>
</g>
</svg>
