<?xml version="1.0" standalone="no"?>
<!DOCTYPE svg PUBLIC "-//W3C//DTD SVG 20010904//EN"
 "http://www.w3.org/TR/2001/REC-SVG-20010904/DTD/svg10.dtd">
<svg version="1.0" xmlns="http://www.w3.org/2000/svg"
 width="512.000000pt" height="512.000000pt" viewBox="0 0 512.000000 512.000000"
 preserveAspectRatio="xMidYMid meet">
<metadata>
Created by potrace 1.16, written by Peter Selinger 2001-2019
</metadata>
<g transform="translate(0.000000,512.000000) scale(0.100000,-0.100000)"
fill="#000000" stroke="none">
<path d="M2052 5020 c-245 -65 -449 -270 -512 -516 -16 -63 -20 -111 -20 -263
l0 -187 -122 -59 c-67 -33 -147 -79 -178 -101 -110 -81 -180 -225 -180 -373
l0 -76 -58 -17 c-31 -9 -74 -31 -94 -48 -25 -21 -152 -214 -395 -603 -407
-651 -412 -662 -413 -831 0 -234 102 -409 306 -523 107 -59 141 -63 579 -63
l395 0 0 -640 0 -640 1600 0 1601 0 -3 792 -3 793 -28 90 c-35 116 -113 272
-176 356 -62 81 -169 183 -251 239 l-61 42 81 84 c106 111 123 148 118 265
l-3 88 386 388 c433 434 425 424 417 551 -7 135 -95 223 -230 230 -112 7 -140
-9 -306 -172 l-142 -140 -38 37 -38 37 -182 0 -182 0 0 -182 0 -182 37 -38 37
-38 -70 -70 c-68 -69 -70 -70 -102 -59 -18 6 -70 9 -120 7 -146 -6 -166 -19
-443 -295 l-238 -236 -10 39 c-5 22 -15 60 -22 87 l-11 47 69 64 c38 35 82 83
97 105 21 30 39 44 70 52 125 33 263 142 323 255 63 119 63 121 63 639 0 437
-1 478 -20 549 -63 248 -268 453 -516 516 -71 18 -111 20 -508 19 -391 0 -438
-2 -504 -19z m874 -149 c254 -30 436 -191 498 -443 l6 -28 -870 0 -870 0 6 28
c57 241 245 414 484 442 94 11 651 11 746 1z m-686 -711 l0 -80 -40 0 c-36 0
-40 3 -58 43 -21 45 -50 75 -97 100 -29 16 -26 16 83 17 l112 0 0 -80z m480 0
l0 -80 -160 0 -160 0 0 80 0 80 160 0 160 0 0 -80z m720 0 l0 -80 -280 0 -280
0 0 80 0 80 280 0 280 0 0 -80z m-1462 -102 c17 -17 15 -69 -4 -96 -8 -12
-123 -99 -255 -193 -131 -94 -242 -175 -245 -180 -5 -8 82 -139 93 -139 2 0
61 41 131 91 114 82 127 88 130 69 7 -44 -11 -68 -166 -223 l-158 -157 -153
92 -153 93 6 85 c9 103 41 181 97 236 28 27 127 83 332 186 160 81 301 147
313 148 11 0 25 -5 32 -12z m1142 -360 c0 -252 -10 -359 -39 -444 -53 -148
-185 -281 -336 -336 -75 -27 -225 -36 -304 -18 -200 45 -362 202 -418 405 -7
27 -16 120 -19 205 -3 91 -11 170 -19 191 l-14 36 54 39 c30 21 69 62 87 91
l33 52 488 1 487 0 0 -222z m318 15 c-6 -248 -16 -285 -102 -379 -30 -32 -55
-57 -57 -54 -2 3 -3 148 -1 323 l3 317 81 0 81 0 -5 -207z m1409 95 c36 -34
32 -86 -12 -128 l-35 -34 -57 57 -57 57 34 35 c41 42 90 48 127 13z m-227
-233 l55 -55 -278 -278 -277 -277 -57 58 -58 57 275 275 c151 151 277 275 280
275 3 0 30 -25 60 -55z m-405 5 c19 -21 18 -22 -38 -77 -55 -56 -56 -57 -77
-38 -16 14 -20 30 -20 77 l0 58 58 0 c47 0 63 -4 77 -20z m-2969 -397 c80 -47
154 -97 165 -111 30 -39 24 -85 -22 -163 -27 -45 -47 -68 -55 -65 -8 3 -47 28
-89 56 -41 27 -76 50 -79 50 -5 0 -68 -90 -90 -127 -4 -8 25 -34 84 -73 50
-34 89 -64 87 -68 -20 -36 -233 -380 -242 -390 -10 -11 -34 -3 -132 46 l-119
60 -37 -74 c-20 -41 -37 -76 -37 -77 0 -2 50 -27 110 -57 61 -30 110 -59 110
-64 0 -5 -20 -42 -45 -82 -25 -39 -45 -76 -45 -80 0 -10 118 -85 135 -86 5 -1
70 97 145 217 143 232 136 224 228 239 l42 6 0 -130 0 -130 -80 0 -80 0 0 -80
0 -80 80 0 80 0 0 -200 0 -200 -160 0 -160 0 0 80 0 80 -80 0 -80 0 0 -80 0
-80 -102 0 c-131 0 -211 12 -277 40 l-52 23 81 54 c52 35 78 58 74 66 -22 36
-85 127 -90 127 -3 0 -45 -27 -94 -60 -49 -33 -93 -60 -98 -60 -5 0 -22 28
-38 63 -26 56 -29 72 -29 167 0 77 5 115 17 143 l17 38 119 -60 118 -59 38 75
c20 41 36 77 34 78 -2 1 -50 26 -108 55 -58 29 -106 53 -108 55 -3 2 244 402
259 419 5 5 81 -35 178 -92 93 -56 173 -102 178 -102 4 0 27 31 50 69 30 51
38 72 30 79 -7 5 -85 53 -175 106 -106 64 -160 101 -155 109 85 145 240 381
260 397 47 37 82 28 239 -67z m488 -38 c35 -26 144 -78 187 -88 15 -4 38 -24
54 -48 16 -22 60 -70 98 -105 l69 -64 -23 -95 c-13 -52 -25 -99 -29 -103 -5
-8 -732 -133 -738 -127 -1 1 49 85 111 186 63 101 119 199 125 218 7 19 12 61
12 95 0 59 1 62 47 108 26 26 49 48 51 48 2 0 18 -11 36 -25z m2071 -134 c23
-11 88 -68 153 -133 108 -110 112 -117 112 -158 0 -41 -5 -48 -102 -147 -72
-73 -107 -102 -118 -97 -8 4 -49 15 -90 25 l-74 19 -141 140 -140 140 38 37
37 38 110 -110 110 -110 62 63 63 62 -110 110 -109 109 35 15 c47 21 116 19
164 -3z m-1410 -277 c86 -20 263 -17 350 6 39 10 73 15 76 12 6 -7 39 -133 39
-151 0 -6 -67 -65 -150 -131 l-150 -121 -150 121 c-82 66 -150 125 -150 131 0
11 27 122 36 148 2 8 11 10 22 6 9 -3 44 -13 77 -21z m-140 -360 c66 -53 121
-99 123 -103 1 -4 -62 -31 -140 -61 -79 -29 -164 -61 -190 -71 l-48 -19 0 164
0 164 58 10 c31 5 62 10 67 11 6 0 64 -42 130 -95z m820 79 l45 -6 0 -163 0
-164 -32 13 c-18 8 -104 40 -191 72 -86 32 -156 62 -155 66 2 4 57 51 123 103
94 75 125 95 143 91 12 -3 42 -8 67 -12z m-1235 -313 c0 -310 2 -325 63 -389
69 -73 49 -71 657 -71 608 0 588 -2 657 71 60 64 63 80 63 387 l0 279 133 -23
c72 -13 144 -26 160 -30 l27 -6 0 -1059 0 -1059 -80 0 -80 0 0 188 c0 209 -6
232 -72 272 -31 19 -51 20 -328 20 -277 0 -297 -1 -328 -20 -66 -40 -72 -63
-72 -272 l0 -188 -80 0 -80 0 0 188 c0 209 -6 232 -72 272 -31 19 -51 20 -328
20 -277 0 -297 -1 -328 -20 -66 -40 -72 -63 -72 -272 l0 -188 -80 0 -80 0 0
1064 0 1063 148 25 c81 14 153 26 160 27 9 1 12 -61 12 -279z m2046 134 c93
-44 217 -137 277 -208 26 -30 47 -57 47 -60 0 -3 -29 -6 -65 -6 l-65 0 0 -80
0 -80 119 0 118 0 26 -77 26 -78 -178 -5 c-195 -6 -213 -11 -251 -73 -18 -29
-20 -51 -20 -247 0 -197 2 -218 20 -248 40 -66 63 -72 273 -72 l187 0 0 -240
0 -240 -160 0 -160 0 0 -80 0 -80 160 0 160 0 0 -80 0 -80 -320 0 -320 0 0
240 0 240 240 0 240 0 0 80 0 80 -240 0 -240 0 0 721 0 721 26 -6 c15 -4 60
-23 100 -42z m-1052 -228 c153 -57 280 -106 282 -109 3 -3 -1 -20 -9 -40 -10
-24 -25 -38 -47 -46 -23 -7 -177 -11 -500 -11 -323 0 -477 4 -500 11 -22 8
-37 22 -47 46 -8 20 -12 37 -10 39 2 3 128 51 278 109 151 57 275 104 275 104
1 1 126 -46 278 -103z m1560 -563 c3 -21 6 -93 6 -160 l0 -123 -160 0 -160 0
0 160 0 160 154 0 153 0 7 -37z m-2074 -1083 l0 -160 -240 0 -240 0 0 160 0
160 240 0 240 0 0 -160z m960 0 l0 -160 -240 0 -240 0 0 160 0 160 240 0 240
0 0 -160z"/>
<path d="M1752 1500 c-67 -41 -72 -60 -72 -300 0 -240 5 -259 72 -300 32 -19
52 -20 808 -20 756 0 776 1 808 20 67 41 72 60 72 300 0 240 -5 259 -72 300
-32 19 -52 20 -808 20 -756 0 -776 -1 -808 -20z m1528 -300 l0 -160 -720 0
-720 0 0 160 0 160 720 0 720 0 0 -160z"/>
</g>
</svg>
