<?xml version="1.0" standalone="no"?>
<!DOCTYPE svg PUBLIC "-//W3C//DTD SVG 20010904//EN"
 "http://www.w3.org/TR/2001/REC-SVG-20010904/DTD/svg10.dtd">
<svg version="1.0" xmlns="http://www.w3.org/2000/svg"
 width="512.000000pt" height="512.000000pt" viewBox="0 0 512.000000 512.000000"
 preserveAspectRatio="xMidYMid meet">
<metadata>
Created by potrace 1.16, written by Peter Selinger 2001-2019
</metadata>
<g transform="translate(0.000000,512.000000) scale(0.100000,-0.100000)"
fill="#000000" stroke="none">
<path d="M1815 5106 c-174 -49 -231 -89 -492 -350 -208 -206 -223 -224 -223
-257 0 -46 33 -79 80 -79 30 0 55 22 259 223 237 233 280 266 400 301 123 36
291 14 406 -53 28 -16 178 -137 333 -270 291 -247 305 -256 354 -230 11 6 93
67 182 136 203 158 242 178 356 178 150 0 146 3 592 -442 250 -250 396 -403
412 -433 73 -133 23 -281 -118 -350 -78 -39 -90 -51 -90 -95 0 -29 13 -47 90
-127 108 -112 128 -150 129 -238 0 -55 -5 -74 -31 -120 -36 -64 -92 -108 -161
-125 -44 -11 -50 -11 -78 10 -84 63 -180 89 -308 84 l-87 -4 0 267 c0 264 0
267 -23 294 -22 25 -28 26 -100 25 -54 -1 -87 4 -110 15 -17 9 -142 126 -277
260 -237 235 -247 244 -285 244 -38 0 -48 -9 -335 -294 -162 -162 -309 -301
-327 -310 -37 -18 -109 -21 -150 -5 -61 23 -122 109 -123 172 0 39 -41 77 -81
77 -29 0 -61 -28 -298 -264 -255 -252 -268 -264 -319 -276 -74 -17 -92 -43
-92 -134 l0 -71 -95 3 c-113 5 -204 -19 -282 -71 -49 -33 -51 -33 -97 -22 -66
17 -124 61 -157 121 -39 68 -46 126 -25 199 15 50 30 70 114 157 83 85 96 104
96 133 0 44 -12 56 -89 94 -77 38 -120 87 -141 160 -19 64 -14 123 17 184 13
24 102 123 215 238 204 206 212 218 178 267 -24 35 -59 44 -97 28 -18 -7 -118
-101 -223 -207 -209 -212 -236 -252 -257 -373 -22 -131 22 -266 118 -362 l55
-56 -46 -51 c-153 -169 -148 -424 10 -583 28 -27 76 -62 107 -77 l56 -26 -23
-68 c-59 -172 -12 -368 117 -495 125 -122 322 -168 480 -113 23 9 43 14 44 13
1 -2 12 -28 24 -58 122 -292 395 -540 704 -640 l67 -22 0 -49 0 -49 -185 0
c-117 0 -193 -4 -209 -11 -30 -14 -38 -33 -106 -262 -38 -129 -50 -183 -50
-235 l0 -67 -80 -68 c-145 -123 -330 -361 -330 -424 0 -11 9 -32 21 -47 l20
-26 1309 0 1309 0 20 26 c12 15 21 36 21 47 0 63 -185 301 -330 424 l-80 68 0
67 c0 52 -12 106 -50 235 -68 229 -76 248 -106 262 -16 7 -92 11 -209 11
l-185 0 0 49 0 49 67 22 c89 29 189 75 230 106 28 21 33 32 33 65 0 48 -27 79
-70 79 -17 0 -63 -16 -103 -36 -165 -84 -310 -114 -544 -114 -177 0 -277 12
-388 47 -161 51 -297 133 -416 252 -139 140 -227 299 -276 501 -12 50 -16 145
-20 411 l-5 346 54 26 c39 20 104 77 252 226 l199 199 66 -68 c87 -90 148
-114 271 -108 141 7 148 12 455 318 l270 270 215 -215 c230 -231 270 -260 369
-272 l52 -6 -3 -531 -4 -531 -27 -100 c-43 -158 -110 -287 -219 -418 -56 -68
-63 -109 -25 -145 40 -38 83 -30 137 26 62 65 153 203 192 293 17 41 33 75 33
77 1 1 21 -4 44 -13 101 -35 240 -28 345 19 218 98 330 360 252 591 -14 39
-24 70 -23 70 38 9 124 62 162 100 160 156 164 411 9 584 l-44 49 53 54 c97
97 142 234 120 364 -23 136 -28 142 -477 591 -354 354 -420 415 -473 442 -159
79 -328 81 -478 5 -27 -14 -111 -72 -185 -130 -74 -58 -140 -108 -147 -111 -6
-2 -123 91 -260 207 -353 301 -408 330 -643 336 -95 3 -150 0 -185 -10z m-541
-2406 c25 -9 26 -13 26 -85 l0 -76 -37 8 c-46 10 -168 10 -205 0 -32 -8 -62
-59 -54 -91 13 -54 28 -61 128 -61 76 0 99 -4 128 -21 34 -20 35 -22 47 -114
6 -51 13 -104 16 -118 4 -20 -1 -27 -32 -40 -20 -9 -66 -16 -106 -16 -60 -1
-80 4 -137 32 -146 72 -211 226 -161 383 22 70 116 168 183 192 51 18 166 22
204 7z m2769 -6 c26 -9 70 -36 97 -61 171 -154 137 -414 -67 -515 -58 -28 -78
-33 -138 -33 -41 1 -85 7 -106 17 l-36 16 8 58 c5 33 12 86 16 118 7 54 11 62
43 80 29 17 52 21 128 21 100 0 115 7 128 61 8 32 -22 83 -54 91 -37 10 -159
10 -204 0 l-38 -8 0 76 c0 69 2 76 23 85 36 14 150 11 200 -6z m-1254 -1724
l0 -235 -110 -90 c-60 -49 -114 -90 -119 -90 -5 0 -59 41 -119 90 l-110 90 0
235 -1 235 230 0 230 0 -1 -235z m-694 -250 c116 -95 217 -179 225 -187 13
-12 -18 -14 -228 -11 l-244 3 -34 37 c-44 49 -44 71 3 230 33 112 39 126 53
114 8 -7 110 -91 225 -186z m1245 -82 c0 -42 -34 -89 -77 -107 -19 -8 -100
-11 -251 -9 l-223 3 238 197 237 196 38 -121 c21 -67 38 -139 38 -159z m-1527
-263 c40 -12 114 -15 359 -15 l308 0 0 -58 c0 -74 22 -102 80 -102 54 0 80 34
80 106 l0 54 308 0 c327 0 379 6 434 49 l25 20 66 -55 c37 -30 98 -92 137
-137 l70 -82 -560 -3 c-308 -1 -812 -1 -1120 0 l-560 3 68 80 c38 44 99 106
136 138 l68 57 25 -20 c14 -11 48 -27 76 -35z"/>
<path d="M1914 3136 c-49 -16 -129 -69 -138 -91 -20 -53 5 -109 54 -120 24 -5
41 0 78 23 26 16 58 33 70 37 35 10 88 -3 119 -29 38 -32 69 -40 102 -26 29
12 51 46 51 80 0 31 -56 86 -112 110 -64 28 -167 35 -224 16z"/>
<path d="M3022 3132 c-63 -23 -123 -69 -136 -105 -20 -56 40 -119 96 -102 13
4 36 18 51 31 54 46 121 41 199 -12 63 -44 128 -13 128 59 0 31 -6 45 -32 70
-75 69 -205 95 -306 59z"/>
<path d="M1932 2775 c-92 -77 -85 -267 11 -325 109 -67 219 63 186 219 -23
113 -124 167 -197 106z"/>
<path d="M3040 2763 c-49 -50 -67 -118 -50 -196 42 -205 261 -165 262 48 0
108 -55 185 -134 185 -33 0 -47 -7 -78 -37z"/>
<path d="M2294 2306 c-52 -23 -58 -69 -19 -146 118 -233 452 -232 571 2 39 76
30 127 -26 146 -46 16 -84 -1 -105 -48 -67 -149 -243 -149 -310 0 -12 26 -27
42 -48 49 -16 6 -30 11 -31 11 -1 -1 -15 -7 -32 -14z"/>
</g>
</svg>
